# Blender v2.79 (sub 0) OBJ File: 'demo_cube_pso.blend'
# www.blender.org
o Cube
v 1.000000 -1.000000 -1.000000
v 1.000000 1.000000 -1.000000
v 1.000000 -1.000000 1.000000
v 1.000000 1.000000 1.000000
v -1.000000 -1.000000 -1.000000
v -1.000000 1.000000 -1.000000
v -1.000000 -1.000000 1.000000
v -1.000000 1.000000 1.000000
vt 0.999900 0.999900
vt 0.000100 0.000100
vt 0.999900 0.000100
vt 0.426701 0.612671
vt 0.401044 0.638329
vt 0.401044 0.612671
vt 0.257048 0.862046
vt 0.244858 0.874236
vt 0.244858 0.862046
vt 0.877506 0.664616
vt 0.872494 0.659603
vt 0.877506 0.659603
vt 0.844789 0.652809
vt 0.854508 0.643090
vt 0.854508 0.652809
vt 0.809796 0.451923
vt 0.807391 0.454327
vt 0.807391 0.451923
vt 0.000100 0.999900
vt 0.426701 0.638329
vt 0.257048 0.874236
vt 0.872494 0.664616
vt 0.844789 0.643090
vt 0.809796 0.454327
vn 0.5773 0.5773 -0.5773
vn 0.5773 -0.5773 0.5773
vn 0.5773 -0.5773 -0.5773
vn 0.5773 0.5773 0.5773
vn -0.5773 -0.5773 0.5773
vn -0.5773 0.5773 0.5773
vn -0.5773 -0.5773 -0.5773
vn -0.5773 0.5773 -0.5773
s 1
f 2/1/1 3/2/2 1/3/3
f 4/4/4 7/5/5 3/6/2
f 8/7/6 5/8/7 7/9/5
f 6/10/8 1/11/3 5/12/7
f 7/13/5 1/14/3 3/15/2
f 4/16/4 6/17/8 8/18/6
f 2/1/1 4/19/4 3/2/2
f 4/4/4 8/20/6 7/5/5
f 8/7/6 6/21/8 5/8/7
f 6/10/8 2/22/1 1/11/3
f 7/13/5 5/23/7 1/14/3
f 4/16/4 2/24/1 6/17/8
