# Blender v2.79 (sub 0) OBJ File: ''
# www.blender.org
o Cube
v -1.000000 -1.000000 1.000000
v -1.000000 1.000000 1.000000
v -1.000000 -1.000000 -1.000000
v -1.000000 1.000000 -1.000000
v 1.000000 -1.000000 1.000000
v 1.000000 1.000000 1.000000
v 1.000000 -1.000000 -1.000000
v 1.000000 1.000000 -1.000000
vt 0.775560 0.146806
vt 0.199636 0.257919
vt 0.199636 0.146806
vt 0.498588 0.993225
vt 0.401711 0.896348
vt 0.498588 0.896348
vt 0.600531 0.994737
vt 0.501258 0.895463
vt 0.600531 0.895463
vt 0.775560 0.146806
vt 0.199636 0.257919
vt 0.199636 0.146806
vt 0.775560 0.146806
vt 0.199636 0.146806
vt 0.399073 0.894649
vt 0.300421 0.993300
vt 0.300421 0.894649
vt 0.775560 0.257919
vt 0.401711 0.993225
vt 0.501258 0.994736
vt 0.775560 0.257919
vt 0.775560 0.257919
vt 0.399073 0.993300
vn -0.5773 0.5773 0.5773
vn -0.5773 -0.5773 -0.5773
vn -0.5773 -0.5773 0.5773
vn -0.5773 0.5773 -0.5773
vn 0.5773 -0.5773 -0.5773
vn 0.5773 0.5773 -0.5773
vn 0.5773 -0.5773 0.5773
vn 0.5773 0.5773 0.5773
s 1
f 2/1/1 3/2/2 1/3/3
f 4/4/4 7/5/5 3/6/2
f 8/7/6 5/8/7 7/9/5
f 6/10/8 1/11/3 5/12/7
f 7/13/5 1/11/3 3/14/2
f 4/15/4 6/16/8 8/17/6
f 2/1/1 4/18/4 3/2/2
f 4/4/4 8/19/6 7/5/5
f 8/7/6 6/20/8 5/8/7
f 6/10/8 2/21/1 1/11/3
f 7/13/5 5/22/7 1/11/3
f 4/15/4 2/23/1 6/16/8
